<?xml version="1.0" encoding="UTF-8" standalone="no"?>
<svg
   width="48"
   height="48"
   fill="none"
   version="1.1"
   id="svg3"
   xmlns="http://www.w3.org/2000/svg"
   xmlns:svg="http://www.w3.org/2000/svg">
  <rect
     width="48"
     height="48"
     rx="2.7826083"
     fill="#ffffff"
     id="rect1"
     x="0"
     y="0"
     style="stroke-width:0.481543"
     ry="0" />
  <g
     clip-path="url(#a)"
     id="g1"
     transform="matrix(1.6493087,0,0,1.6493087,-21.651551,-15.437857)"
     style="fill:#00ff00">
    <path
       fill-rule="evenodd"
       clip-rule="evenodd"
       d="m 27.7462,12.4473 c 2.9024,0.0139 5.7034,1.1536 7.7986,3.1621 2.1456,2.057 3.3822,4.8152 3.4903,7.7855 0.1056,2.9008 -0.9071,5.7502 -2.8279,7.9263 -2.1067,2.3866 -5.0371,3.7574 -8.2021,3.8482 a 11.0067,11.0067 0 0 1 -0.325,0.0047 c -1.7054,0 -3.3949,-0.3846 -4.9252,-1.1209 l -5.9481,1.323 a 0.0874,0.0874 0 0 1 -0.1033,-0.0974 l 1.0048,-6.0144 c -0.8575,-1.5668 -1.3361,-3.3321 -1.3877,-5.1278 -0.087,-3.0341 1.0127,-5.9204 3.0966,-8.1273 2.1606,-2.2882 5.1111,-3.562 8.2727,-3.562 z m -0.0633,1.9717 a 9.576,9.576 0 0 0 -0.2728,0.0039 c -5.1765,0.1485 -9.2671,4.4807 -9.1186,9.6572 0.0454,1.5806 0.4907,3.1321 1.2878,4.4868 l 0.173,0.2937 -0.7445,4.0812 4.0387,-0.9534 0.305,0.1588 c 1.3307,0.6924 2.8218,1.0553 4.3283,1.0553 0.0895,0 0.1792,-0.0013 0.2687,-0.0039 5.1766,-0.1485 9.2672,-4.4806 9.1187,-9.6571 -0.1459,-5.0852 -4.3294,-9.1225 -9.3843,-9.1225 z m -3.9285,3.9024 c 0.1899,0.0059 0.3802,0.0113 0.5462,0.0235 0.2029,0.0145 0.4275,0.031 0.6265,0.5128 0.2362,0.5721 0.747,2.0004 0.8139,2.1453 0.0669,0.1449 0.1093,0.313 0.0084,0.5006 -0.1009,0.1874 -0.1521,0.3049 -0.2995,0.4671 -0.1476,0.1623 -0.3111,0.3628 -0.4431,0.4866 -0.1474,0.1379 -0.3006,0.288 -0.143,0.5785 0.1575,0.2908 0.701,1.2425 1.5255,2.025 1.0596,1.0056 1.9093,1.3374 2.2468,1.4948 0.1218,0.0569 0.223,0.0838 0.3114,0.0838 0.1214,0 0.2185,-0.0508 0.3112,-0.1448 0.1776,-0.1799 0.712,-0.8035 0.937,-1.0904 0.1177,-0.1501 0.2243,-0.2033 0.34,-0.2033 0.0926,0 0.1911,0.0341 0.3061,0.0799 0.2584,0.1033 1.639,0.8367 1.9198,0.9882 0.2808,0.1514 0.4686,0.2287 0.5363,0.3497 0.0676,0.1216 0.05,0.6927 -0.2081,1.3517 -0.2581,0.6591 -1.4419,1.2661 -1.9662,1.2975 -0.1535,0.0092 -0.3045,0.0307 -0.501,0.0307 -0.4751,0 -1.2159,-0.1251 -2.8986,-0.8498 -2.8631,-1.2329 -4.6017,-4.2625 -4.7385,-4.4571 -0.1365,-0.1949 -1.1167,-1.5831 -1.0736,-2.9873 0.0431,-1.404 0.801,-2.0718 1.0712,-2.3493 0.259,-0.2661 0.5558,-0.3341 0.7474,-0.3341 z"
       fill="#103928"
       id="path1"
       style="fill:#00ff00" />
  </g>
  <defs
     id="defs3">
    <clipPath
       id="a">
      <path
         fill="#ffffff"
         transform="translate(16,11.5)"
         d="M 0,0 H 24 V 24 H 0 Z"
         id="path3" />
    </clipPath>
  </defs>
</svg>
