<?xml version="1.0" encoding="UTF-8" standalone="no"?>
<!-- Created with Inkscape (http://www.inkscape.org/) -->

<svg
   version="1.1"
   id="svg1"
   width="548.77032"
   height="348.93475"
   viewBox="0 0 548.77032 348.93475"
   sodipodi:docname="mcs.svg"
   inkscape:version="1.3 (0e150ed6c4, 2023-07-21)"
   xmlns:inkscape="http://www.inkscape.org/namespaces/inkscape"
   xmlns:sodipodi="http://sodipodi.sourceforge.net/DTD/sodipodi-0.dtd"
   xmlns:xlink="http://www.w3.org/1999/xlink"
   xmlns="http://www.w3.org/2000/svg"
   xmlns:svg="http://www.w3.org/2000/svg">
  <defs
     id="defs1">
    <inkscape:path-effect
       effect="bspline"
       id="path-effect22"
       is_visible="true"
       lpeversion="1.3"
       weight="33.333333"
       steps="2"
       helper_size="0"
       apply_no_weight="true"
       apply_with_weight="true"
       only_selected="false"
       uniform="false" />
    <inkscape:path-effect
       effect="bspline"
       id="path-effect21"
       is_visible="true"
       lpeversion="1.3"
       weight="33.333333"
       steps="2"
       helper_size="0"
       apply_no_weight="true"
       apply_with_weight="true"
       only_selected="false"
       uniform="false" />
    <inkscape:path-effect
       effect="bspline"
       id="path-effect39"
       is_visible="true"
       lpeversion="1.3"
       weight="33.333333"
       steps="2"
       helper_size="0"
       apply_no_weight="true"
       apply_with_weight="true"
       only_selected="false"
       uniform="false" />
    <inkscape:path-effect
       effect="bspline"
       id="path-effect38"
       is_visible="true"
       lpeversion="1.3"
       weight="33.333333"
       steps="2"
       helper_size="0"
       apply_no_weight="true"
       apply_with_weight="true"
       only_selected="false"
       uniform="false" />
    <inkscape:path-effect
       effect="bspline"
       id="path-effect37"
       is_visible="true"
       lpeversion="1.3"
       weight="33.333333"
       steps="2"
       helper_size="0"
       apply_no_weight="true"
       apply_with_weight="true"
       only_selected="false"
       uniform="false" />
    <inkscape:path-effect
       effect="spiro"
       id="path-effect36"
       is_visible="true"
       lpeversion="1" />
    <inkscape:path-effect
       effect="bspline"
       id="path-effect28"
       is_visible="true"
       lpeversion="1.3"
       weight="33.333333"
       steps="2"
       helper_size="0"
       apply_no_weight="true"
       apply_with_weight="true"
       only_selected="false"
       uniform="false" />
    <inkscape:path-effect
       effect="bspline"
       id="path-effect25"
       is_visible="true"
       lpeversion="1.3"
       weight="33.333333"
       steps="2"
       helper_size="0"
       apply_no_weight="true"
       apply_with_weight="true"
       only_selected="false"
       uniform="false" />
    <inkscape:path-effect
       effect="bspline"
       id="path-effect18"
       is_visible="true"
       lpeversion="1.3"
       weight="33.333333"
       steps="2"
       helper_size="0"
       apply_no_weight="true"
       apply_with_weight="true"
       only_selected="false"
       uniform="false" />
    <inkscape:path-effect
       effect="bspline"
       id="path-effect17"
       is_visible="true"
       lpeversion="1.3"
       weight="33.333333"
       steps="2"
       helper_size="0"
       apply_no_weight="true"
       apply_with_weight="true"
       only_selected="false"
       uniform="false" />
    <inkscape:path-effect
       effect="bspline"
       id="path-effect15"
       is_visible="true"
       lpeversion="1.3"
       weight="33.333333"
       steps="2"
       helper_size="0"
       apply_no_weight="true"
       apply_with_weight="true"
       only_selected="false"
       uniform="false" />
    <linearGradient
       id="linearGradient10"
       inkscape:collect="always">
      <stop
         style="stop-color:#1079b5;stop-opacity:1;"
         offset="0"
         id="stop10" />
      <stop
         style="stop-color:#cae4f9;stop-opacity:0;"
         offset="1"
         id="stop11" />
    </linearGradient>
    <inkscape:path-effect
       effect="bspline"
       id="path-effect20"
       is_visible="true"
       lpeversion="1.3"
       weight="33.333333"
       steps="2"
       helper_size="0"
       apply_no_weight="true"
       apply_with_weight="true"
       only_selected="false"
       uniform="false" />
    <inkscape:path-effect
       effect="bspline"
       id="path-effect19"
       is_visible="true"
       lpeversion="1.3"
       weight="33.333333"
       steps="2"
       helper_size="0"
       apply_no_weight="true"
       apply_with_weight="true"
       only_selected="false"
       uniform="false" />
    <inkscape:path-effect
       effect="bspline"
       id="path-effect14"
       is_visible="true"
       lpeversion="1.3"
       weight="33.333333"
       steps="2"
       helper_size="0"
       apply_no_weight="true"
       apply_with_weight="true"
       only_selected="false"
       uniform="false" />
    <inkscape:path-effect
       effect="bspline"
       id="path-effect12"
       is_visible="true"
       lpeversion="1.3"
       weight="33.333333"
       steps="2"
       helper_size="0"
       apply_no_weight="true"
       apply_with_weight="true"
       only_selected="false"
       uniform="false" />
    <linearGradient
       inkscape:collect="always"
       xlink:href="#linearGradient10"
       id="linearGradient11"
       x1="-214.41333"
       y1="-173.58057"
       x2="20.350796"
       y2="-176.233"
       gradientUnits="userSpaceOnUse"
       spreadMethod="pad" />
  </defs>
  <sodipodi:namedview
     id="namedview1"
     pagecolor="#505050"
     bordercolor="#eeeeee"
     borderopacity="1"
     inkscape:showpageshadow="0"
     inkscape:pageopacity="0"
     inkscape:pagecheckerboard="0"
     inkscape:deskcolor="#505050"
     showguides="true"
     inkscape:zoom="0.53194445"
     inkscape:cx="307.36292"
     inkscape:cy="-62.976501"
     inkscape:window-width="1366"
     inkscape:window-height="715"
     inkscape:window-x="-8"
     inkscape:window-y="-8"
     inkscape:window-maximized="1"
     inkscape:current-layer="g1" />
  <g
     inkscape:groupmode="layer"
     inkscape:label="Image"
     id="g1"
     style="opacity:1"
     transform="translate(-47.153634,-55.811492)">
    <g
       id="g2"
       transform="translate(200.61621,290.63339)">
      <path
         style="display:inline;fill:#f9dba1"
         d="M 22.88952,75.530189 C 12.147866,71.576574 7,64.198958 7,52.75827 7,47.875756 7.6177766,45.152972 9.6516032,41.071614 c 2.2773658,-4.570077 3.4195508,-5.672652 8.0927848,-7.812129 6.668461,-3.052922 11.63537,-2.616587 15.057441,1.322773 3.24239,3.732518 2.755586,9.931443 -0.999199,12.723729 -2.622877,1.950529 -2.824008,1.957564 -7.282791,0.25474 -3.64441,-1.391813 -4.886518,-1.5013 -6.05263,-0.533513 -2.537354,2.105817 -1.749806,6.69379 1.81714,10.586001 3.850163,4.201255 9.699183,5.38377 17.238909,3.485245 C 42.441454,59.860045 52.620954,53.022891 56.064607,48.644994 61.240937,42.064358 71,21.553116 71,17.254332 71,16.407128 69.295968,16.00181 65.75,16.005577 60.481553,16.011173 53,17.581863 53,18.682333 c 0,0.323579 1.179213,1.681183 2.620473,3.016898 2.178505,2.018971 2.523985,3.023151 2.04839,5.9539 -0.745306,4.592781 -2.140491,6.15712 -6.164653,6.912057 C 45.033952,35.779016 40,29.929672 40,21.197543 40,15.345556 42.620621,10.910028 48.514792,6.7858487 53.368369,3.3897774 62.564925,2.0118142 79.966436,2.0733011 95.443912,2.1279896 94.875757,1.4930705 96.110808,20.114823 96.967932,33.038309 97.42735,36.161593 98.288079,34.916667 98.446522,34.6875 100.40317,32.025 102.63618,29 c 2.23301,-3.025 6.85488,-9.629399 10.27082,-14.676441 3.41595,-5.0470431 6.89682,-9.7457804 7.73528,-10.4416387 0.84497,-0.7012621 4.80562,-1.3826167 8.88579,-1.52863 5.74065,-0.2054353 7.81724,0.1119571 9.43212,1.4416384 L 141.03098,5.5 l -4.54222,16 c -2.49823,8.8 -5.20258,18.25 -6.00967,21 -2.87501,9.79601 -2.95406,11.479016 -0.61607,13.116608 2.47522,1.733713 2.79942,5.578094 0.65154,7.725977 C 128.79675,65.060388 120.62512,67 115.10577,67 c -7.63417,0 -8.73392,-4.793279 -4.474,-19.5 1.43381,-4.95 2.83821,-10.554631 3.12089,-12.454736 0.68594,-4.610777 -0.18974,-3.644949 -10.26451,11.321186 C 92.769654,62.288846 90.126597,65.25 86.633126,65.25 c -1.546433,0 -3.378838,-0.61875 -4.07201,-1.375 C 81.826456,63.073486 80.772754,56.660865 80.034744,48.5 78.721494,33.978168 77.59807,29.480772 76.374253,33.845976 75.055819,38.548664 67.989045,52.100229 64.133691,57.319029 56.158023,68.115294 46.911084,74.300008 36.096069,76.071687 29.003286,77.233602 27.331299,77.165047 22.88952,75.530189 Z M 45.5,71.565058 c 11.2069,-5.472808 20.339492,-17.225983 28.604324,-36.81229 2.775163,-6.576683 4.462753,-9.490843 4.970615,-8.583343 0.422906,0.755692 1.295268,7.889218 1.938581,15.85228 1.609231,19.919375 1.962233,21.40742 5.167799,21.784298 1.995844,0.234652 3.141322,-0.464873 4.912529,-3 C 92.364234,58.987702 93.681188,57.275 94.020412,57 c 0.339225,-0.275 4.75734,-6.575 9.818038,-14 11.42349,-16.760428 12.86151,-18.633378 13.67885,-17.816035 0.35974,0.359746 -1.25052,7.751204 -3.57838,16.425463 -5.89592,21.969945 -5.63516,24.006271 3.04032,23.74215 9.75976,-0.297131 16.01903,-4.210451 12.44735,-7.782132 C 128.56339,56.706251 127.38177,56 126.80076,56 c -1.97859,0 -0.49092,-6.23868 9.38631,-39.362152 1.61746,-5.424184 2.70118,-10.4866836 2.40827,-11.25 -0.3876,-1.0100488 -2.5147,-1.3836796 -7.81396,-1.3725352 -4.00476,0.00842 -7.76017,0.345922 -8.34536,0.75 C 121.85083,5.1693907 118.21718,10 114.36123,15.5 110.50528,21 105.20659,28.561672 102.58635,32.303715 99.966117,36.045758 97.299773,38.935074 96.661144,38.724417 95.903381,38.474463 95.136042,32.724519 94.452335,22.173038 93.869938,13.185047 92.9156,5.5155998 92.303409,4.903409 91.556601,4.156601 85.430702,3.9144535 73.270677,4.1510739 55.366462,4.4994696 55.331728,4.5045681 50.419603,7.5052885 41.261722,13.099658 38.759507,22.995442 44.713593,30.071471 49.233533,35.443115 56,33.249411 56,26.412393 c 0,-2.95228 -0.500369,-3.68336 -3.5,-5.113784 -1.925,-0.917968 -3.5,-2.05865 -3.5,-2.534848 0,-1.683133 6.880451,-3.706994 14.866857,-4.373035 9.867627,-0.822928 10.402471,-0.155051 7.12351,8.895356 -8.402038,23.19084 -20.200605,36.921165 -34.071634,39.650124 -8.001005,1.574101 -12.899681,0.65757 -17.42656,-3.26047 -3.265817,-2.826583 -3.677173,-3.715624 -3.741511,-8.086309 -0.05786,-3.930897 0.374213,-5.272126 2.165762,-6.722835 2.169763,-1.756967 2.32307,-1.749401 5.024655,0.247967 3.533139,2.612163 6.796085,2.141228 9.39772,-1.356354 1.948932,-2.620103 1.965755,-2.896337 0.379025,-6.223745 C 29.017464,29.774726 15.884533,32.386509 11.097197,41.834215 5.1078262,53.654109 9.8228662,68.279914 21.301466,73.487318 26.77152,75.968873 38.368574,75.047638 45.5,71.565058 Z m 94.9202,-5.686069 c -6.28765,-3.122139 -6.907,-12.882431 -1.53212,-24.144477 3.05398,-6.399036 10.72356,-15.536276 14.78144,-17.610023 1.19324,-0.609795 5.46824,-1.046122 9.5,-0.969615 4.03177,0.07651 8.28354,-0.163501 9.4484,-0.533352 1.16485,-0.36985 3.30235,-0.222133 4.75,0.328261 2.24625,0.854021 2.63208,1.595857 2.63208,5.060649 0,2.232964 -0.64257,5.056602 -1.42792,6.274751 -0.78536,1.218149 -2.59887,6.312507 -4.03001,11.320794 -2.05604,7.195102 -2.38591,9.674561 -1.57193,11.815475 1.99343,5.24313 -2.00338,8.764895 -10.08555,8.886821 -3.16955,0.04781 -5.43483,-0.496262 -6.65185,-1.597649 -1.5817,-1.431414 -2.12334,-1.476547 -3.78912,-0.315735 -2.70128,1.882403 -9.52502,2.724685 -12.02342,1.4841 z m 11.38184,-3.065661 3.53811,-2.186672 1.4519,2.186672 C 157.86484,64.42904 159.24425,65 162.07492,65 c 7.2424,0 11.31157,-3.540807 9.01045,-7.840483 -1.09925,-2.053963 0.46567,-8.785584 5.362,-23.065081 1.91083,-5.572689 2.26315,-7.738312 1.42352,-8.75 -1.24768,-1.503368 -7.62046,-1.789078 -9.75481,-0.437337 -0.79278,0.502084 -2.69141,0.501491 -4.44485,-0.0014 -5.13427,-1.472487 -9.83222,0.513915 -15.57407,6.585072 -10.07606,10.653954 -14.42834,25.327807 -9.17285,30.926563 3.06459,3.264747 7.99087,3.416228 12.87773,0.395984 z m -0.80699,-12.376237 c -0.0115,-6.821973 7.03939,-19.769911 9.82747,-18.046777 3.06493,1.894228 -0.89093,12.50317 -6.72927,18.046777 L 151,53.374182 Z m 6.20312,-6.837908 C 159.40638,40.559005 160.56623,36 159.13146,36 c -1.4008,0 -3.80803,3.735415 -4.67215,7.25 -0.8234,3.349002 0.44271,3.510421 2.73886,0.349183 z M 216.5,66.483652 c -0.55,-0.169791 -2.12953,-0.554548 -3.51008,-0.855016 C 210.14641,65.009759 207,60.375267 207,56.805807 c 0,-2.270979 2.15125,-11.486514 3.48203,-14.916291 0.48391,-1.247178 -0.18975,-1.742679 -2.98624,-2.196487 -1.98612,-0.322302 -4.20289,-0.358918 -4.92617,-0.08137 -1.93647,0.743092 -6.02274,8.851167 -8.69449,17.251824 -1.78571,5.614702 -2.89566,7.574025 -4.67361,8.25 -3.45646,1.314142 -9.56191,1.074696 -11.65685,-0.457161 -2.01319,-1.472077 -1.98137,-1.812267 1.23036,-13.156322 4.79508,-16.936597 4.71061,-16.492717 3.5058,-18.421928 -1.89324,-3.031561 -0.38368,-5.849868 4.3645,-8.148427 3.19261,-1.545516 5.3296,-1.955023 7.64318,-1.464647 1.92574,0.408172 3.66788,1.615571 5.41047,1.63671 1.9567,0.02374 3.91397,-1.1893 6.13238,-1.6543 4.43567,-0.929759 7.82966,0.995436 9.22882,5.234939 l 1.11309,3.372704 3.42686,-3.008824 c 5.63504,-4.947625 8.65853,-6.050892 16.26512,-5.935106 3.83579,0.05839 7.47128,-0.201072 8.07886,-0.576576 1.81095,-1.119232 6.99689,0.486693 8.07463,2.500464 0.70698,1.321017 0.58391,2.990432 -0.41792,5.668718 -3.46018,9.250488 -7.59235,23.500957 -7.06291,24.357615 0.99687,1.612971 2.20813,1.031662 2.7324,-1.31134 1.73257,-7.742992 17.01527,-49.4975846 18.59619,-50.8075426 1.65553,-1.3717817 4.60261,-1.6307864 11.84832,-1.0412921 0.66815,0.054359 1.65229,0.9162601 2.18697,1.9153356 0.72821,1.36067 -0.1657,4.9365505 -3.56225,14.2500001 -6.74482,18.494451 -6.81051,20.146818 -0.53657,13.495232 C 280.23772,26.860052 288.70245,23 294.57805,23 c 4.08606,0 5.09995,0.445727 7.7411,3.403133 l 3.0392,3.403133 3.75638,-3.018706 c 4.48601,-3.605059 11.12639,-4.688163 16.95305,-2.765192 C 328.2305,24.736131 330,25.612084 330,25.96893 c 0,0.356846 0.59753,1.465981 1.32784,2.464745 1.25253,1.712929 1.58463,1.61993 5.85475,-1.639529 3.85676,-2.943931 5.4081,-3.487262 10.4795,-3.67027 C 355.75936,22.831674 359,25.230302 359,31.515876 359,36.165483 356.60278,39 352.6705,39 c -1.41256,0 -1.69747,0.438244 -1.13771,1.75 3.5973,8.430057 3.84046,9.84525 2.50881,14.601407 -1.55112,5.540064 -5.31864,9.10756 -11.32672,10.725368 -5.37118,1.446309 -12.50427,0.469713 -15.22273,-2.084153 -2.68689,-2.524201 -3.52284,-2.497914 -8.18499,0.257378 -5.24899,3.102109 -15.03715,3.065073 -19.28157,-0.07296 -3.37822,-2.497632 -5.74729,-2.703282 -8.35704,-0.725443 -2.75238,2.085944 -11.27282,3.84522 -15.12393,3.122747 -1.87075,-0.350954 -4.83126,-1.973832 -6.57893,-3.606397 L 266.78812,59.99965 264.92,62.374579 C 263.23858,64.512147 256.61905,67 252.61294,67 c -0.82578,0 -2.74479,-1.069506 -4.26447,-2.37668 -2.69006,-2.313896 -2.83022,-2.329792 -5.30576,-0.60175 -3.88647,2.712937 -9.32121,3.130671 -13.43616,1.032752 -2.86312,-1.459703 -3.86407,-1.568043 -5.31685,-0.575476 -2.01348,1.375653 -6.27497,2.472417 -7.7897,2.004806 z M 188.70208,63.25 c 1.05801,-0.9625 2.76457,-4.45 3.79236,-7.75 2.33755,-7.505317 5.13195,-13.345592 7.75692,-16.211885 1.68845,-1.843679 2.72863,-2.115532 6.24854,-1.633074 3.64872,0.500112 4.44569,0.260724 5.8615,-1.760621 2.05682,-2.936527 2.08399,-5.813521 0.0819,-8.671914 -1.87338,-2.674625 -7.30397,-3.015128 -10.86585,-0.681298 -2.02352,1.325866 -2.54909,1.3443 -3.76145,0.131931 -2.61706,-2.617055 -5.27689,-2.731293 -9.85394,-0.423222 -4.52723,2.282949 -6.24371,5.339945 -3.83441,6.828975 1.08418,0.670057 1.00483,1.961634 -0.43741,7.119827 C 177.73007,61.515319 177.432,63.029263 179,64.02082 181.42329,65.553234 186.62454,65.14 188.70208,63.25 Z M 223.27287,63 c 1.39842,-1.1 3.15086,-2 3.89431,-2 0.74345,0 1.91379,0.9 2.60075,2 C 232.34011,67.118713 244,64.394087 244,59.67432 c 0,-1.250876 -0.47534,-2.749663 -1.05632,-3.330638 -0.74176,-0.741757 0.36462,-5.434308 3.71529,-15.75793 4.00126,-12.328159 4.53841,-14.845733 3.32717,-15.594319 -2.23941,-1.384028 -20.43225,-0.329222 -23.72942,1.375812 -4.35802,2.253621 -11.16277,10.169887 -13.7144,15.954564 -4.57267,10.366524 -4.81779,16.506342 -0.83468,20.907628 2.19765,2.428379 8.34131,2.306498 11.56523,-0.229437 z m -0.27208,-13.241526 c 8.8e-4,-3.628143 4.79041,-14.520265 7.29704,-16.594564 2.50551,-2.073377 3.99641,-0.394291 3.426,3.858447 -0.5475,4.081858 -5.83947,12.944259 -8.85324,14.826385 -1.68379,1.051546 -1.87051,0.842808 -1.8698,-2.090268 z M 231.46948,39.75 C 232.87418,36.367605 232.875,36 231.47788,36 230.04529,36 226,43.610094 226,46.305128 c 0,1.969148 3.84132,-2.634642 5.46948,-6.555128 z m 28.96425,24.098243 c 3.09658,-1.410898 4.06797,-4.072035 2.43871,-6.680893 -1.3262,-2.123584 -0.30848,-5.930068 6.58305,-24.621862 C 278.97708,6.7202204 279.20842,5.9560595 277.96048,4.4523785 277.20497,3.5420416 274.91572,3 271.82653,3 c -4.74813,0 -4.98634,0.1373018 -6.50615,3.75 -1.44555,3.436201 -16.86892,47.453688 -18.04455,51.498231 -0.27949,0.961528 0.22948,2.874028 1.13105,4.25 C 249.69542,64.464779 250.88686,65 253.976,65 c 2.16144,0 5.06742,-0.518291 6.45773,-1.151757 z m 31.10356,-2.41286 c 4.07643,-2.454696 6.05018,-3.172974 6.3389,-2.306818 0.23059,0.691789 1.45733,2.295867 2.72608,3.564617 C 302.46643,64.557344 303.99218,65 308.55342,65 319.12258,65 325,60.084696 325,51.245668 c 0,-3.828205 -0.63469,-5.826749 -2.80914,-8.84563 C 318.92733,37.86915 317.67945,35 318.97237,35 c 0.50028,0 1.18771,0.45 1.52763,1 0.33992,0.55 2.15064,1 4.02383,1 5.38918,0 7.32827,-5.558493 3.48498,-9.989847 -1.61451,-1.861539 -3.0057,-2.295867 -7.35387,-2.295867 -3.29772,0 -6.49547,0.669157 -8.30452,1.737788 C 308.50522,28.723491 305,33.921238 305,37.351718 c 0,2.857978 2.88522,9.221443 6.23584,13.753407 1.28696,1.740699 1.73845,3.400522 1.3004,4.780681 -0.88857,2.799635 -1.94437,2.666449 -4.0241,-0.507629 -1.55228,-2.369079 -2.14527,-2.563245 -6.15126,-2.014163 -2.66486,0.36526 -5.16569,0.150322 -6.26917,-0.538815 -1.47721,-0.922532 -2.54133,-0.710438 -5.44773,1.085814 -4.91645,3.038535 -8.05466,2.500797 -8.44134,-1.44644 -0.27861,-2.844106 0.0365,-3.152164 5,-4.887544 7.62564,-2.666154 11.3512,-5.155671 13.71763,-9.166475 2.70184,-4.57927 2.62858,-7.660952 -0.26201,-11.021457 -1.89201,-2.199603 -3.18831,-2.721439 -6.75,-2.717267 -10.79381,0.01264 -22.22761,10.459139 -24.99825,22.839675 -1.48746,6.646688 -0.58199,11.543786 2.75064,14.876419 C 273.86277,64.590047 275.16299,65 279.94519,65 c 4.72863,0 6.65743,-0.593115 11.5921,-3.564617 z m -5.9429,-22.28266 c -0.32102,-0.519417 0.29895,-2.003768 1.3777,-3.298559 1.93196,-2.318861 1.96187,-2.32226 1.99464,-0.226609 0.0375,2.400452 -2.45632,5.007323 -3.37234,3.525168 z m 61.60424,22.83508 c 6.36124,-5.243469 7.26889,-12.613295 2.45964,-19.97144 -3.83439,-5.866598 -3.97925,-6.963791 -0.75895,-5.748262 5.71584,2.157488 10.09162,-1.183762 8.71796,-6.656852 C 356.43813,24.91315 346.58961,23.092381 340.20767,26.392608 332.33482,30.463818 330.99122,37.931578 336.5,47 c 3.57331,5.882304 4.4959,10 2.24055,10 -0.6927,0 -1.82152,-0.9 -2.50848,-2 C 333.68274,50.917877 326,53.142345 326,57.962604 326,62.557065 329.95979,65 337.40701,65 c 5.3493,0 6.6065,-0.386754 9.79162,-3.012197 z m -81.02172,-8.050898 c -0.73538,-4.169177 -0.82613,-4.269729 -1.50396,-1.666386 -0.41035,1.576039 -0.24485,3.660878 0.38387,4.835647 1.61108,3.010328 2.01066,1.879715 1.12009,-3.169261 z m 24.48044,-2.034153 c 2.10289,-1.299659 4.04929,-1.822764 5.11803,-1.375497 0.94854,0.396962 4.28117,0.816574 7.40584,0.932471 l 5.68121,0.210721 -3.00457,-5.952032 -3.00458,-5.952031 -2.93035,2.807457 c -1.6117,1.544102 -5.74119,4.000217 -9.17664,5.458034 -3.56185,1.511448 -6.38524,3.363462 -6.56961,4.309351 -0.44882,2.3026 2.35215,2.11309 6.48067,-0.438474 z m 43.99426,-4.583267 C 333.29381,45.218768 331.88098,42.0375 331.51198,40.25 330.84092,36.999201 329.66256,36.118942 328.5,38 c -0.33992,0.55 -1.71648,1 -3.05902,1 -2.80413,0 -3.01383,0.737131 -1.01966,3.584211 0.78173,1.116073 1.82469,3.578701 2.31769,5.472506 0.77145,2.963479 1.26571,3.399053 3.547,3.125868 1.45785,-0.174578 3.4524,0.134943 4.43232,0.687824 2.70576,1.526621 2.67894,-0.302996 -0.0667,-4.550924 z"
         id="path4-4"
         sodipodi:nodetypes="ssssssssssssssssssssssssssscsssssssssssssssssssssssssssssssssssssssssssssssssssssssssssssssssssssccsssssssssscssscssssssssssssssssssssscsssssssssssssscssssssssssssssssscsssssssssssssssssssssssssssssssssssssssssssssssssssssssssssssssssssssssssssssssssssssssssssssssssssscccssssssssssssss" />
      <path
         style="fill:#ed921f"
         d="M 21.301466,73.487318 C 9.8228662,68.279914 5.1078262,53.654109 11.097197,41.834215 15.884533,32.386509 29.017464,29.774726 32.717824,37.53446 c 1.58673,3.327408 1.569907,3.603642 -0.379025,6.223745 -2.601635,3.497582 -5.864581,3.968517 -9.39772,1.356354 -2.701585,-1.997368 -2.854892,-2.004934 -5.024655,-0.247967 -1.791549,1.450709 -2.223627,2.791938 -2.165762,6.722835 0.06434,4.370685 0.475694,5.259726 3.741511,8.086309 9.509119,8.230197 27.294527,3.432853 37.786368,-10.1923 C 64.347312,40.303627 73.953553,18.927303 72.597785,15.394228 72.037661,13.934567 70.901895,13.804026 63.866857,14.390726 55.880451,15.056767 49,17.080628 49,18.763761 c 0,0.476198 1.575,1.61688 3.5,2.534848 2.999631,1.430424 3.5,2.161504 3.5,5.113784 0,6.837018 -6.766467,9.030722 -11.286407,3.659078 -5.954086,-7.076029 -3.451871,-16.971813 5.70601,-22.5661825 4.912125,-3.0007204 4.946859,-3.0058189 22.851074,-3.3542146 12.160025,-0.2366204 18.285924,0.00553 19.032732,0.7523351 0.612191,0.6121908 1.566529,8.281638 2.148926,17.269629 0.683707,10.551481 1.451046,16.301425 2.208809,16.551379 0.638629,0.210657 3.304973,-2.678659 5.925206,-6.420702 C 105.20659,28.561672 110.50528,21 114.36123,15.5 c 3.85595,-5.5 7.4896,-10.3306093 8.07479,-10.7346872 0.58519,-0.404078 4.3406,-0.741578 8.34536,-0.75 5.29926,-0.011144 7.42636,0.3624864 7.81396,1.3725352 0.29291,0.7633164 -0.79081,5.825816 -2.40827,11.25 C 126.30984,49.76132 124.82217,56 126.80076,56 c 0.58101,0 1.76263,0.706251 2.62583,1.569446 3.57168,3.571681 -2.68759,7.485001 -12.44735,7.782132 -8.67548,0.264121 -8.93624,-1.772205 -3.04032,-23.74215 2.32786,-8.674259 3.93812,-16.065717 3.57838,-16.425463 -0.81734,-0.817343 -2.25536,1.055607 -13.67885,17.816035 -5.060698,7.425 -9.478813,13.725 -9.818038,14 -0.339224,0.275 -1.656178,1.987702 -2.926564,3.806003 -1.771207,2.535127 -2.916685,3.234652 -4.912529,3 -3.205566,-0.376878 -3.558568,-1.864923 -5.167799,-21.784298 -0.643313,-7.963062 -1.515675,-15.096588 -1.938581,-15.85228 -0.507862,-0.9075 -2.195452,2.00666 -4.970615,8.583343 C 65.839492,54.339075 56.7069,66.09225 45.5,71.565058 c -7.131426,3.48258 -18.72848,4.403815 -24.198534,1.92226 z M 138.92431,62.417344 c -5.25549,-5.598756 -0.90321,-20.272609 9.17285,-30.926563 5.74185,-6.071157 10.4398,-8.057559 15.57407,-6.585072 1.75344,0.502881 3.65207,0.503474 4.44485,0.0014 2.13435,-1.351741 8.50713,-1.066031 9.75481,0.437337 0.83963,1.011688 0.48731,3.177311 -1.42352,8.75 -4.89633,14.279497 -6.46125,21.011118 -5.362,23.065081 C 173.38649,61.459193 169.31732,65 162.07492,65 c -2.83067,0 -4.21008,-0.57096 -5.28287,-2.186672 l -1.4519,-2.186672 -3.53811,2.186672 c -4.88686,3.020244 -9.81314,2.868763 -12.87773,-0.395984 z m 20.66894,-19.6341 c 4.21538,-8.261313 2.40052,-13.934036 -2.55777,-7.99481 -3.03955,3.640894 -6.04752,11.433511 -6.04043,15.648657 l 0.005,2.937091 3.09325,-2.937091 c 1.70128,-1.6154 4.17628,-5.059631 5.5,-7.653847 z M 179,64.02082 c -1.568,-0.991557 -1.26993,-2.505501 4.69024,-23.822101 1.44224,-5.158193 1.52159,-6.44977 0.43741,-7.119827 -2.4093,-1.48903 -0.69282,-4.546026 3.83441,-6.828975 4.57705,-2.308071 7.23688,-2.193833 9.85394,0.423222 1.21236,1.212369 1.73793,1.193935 3.76145,-0.131931 3.56188,-2.33383 8.99247,-1.993327 10.86585,0.681298 2.00209,2.858393 1.97492,5.735387 -0.0819,8.671914 -1.41581,2.021345 -2.21278,2.260733 -5.8615,1.760621 -3.51991,-0.482458 -4.56009,-0.210605 -6.24854,1.633074 -2.62497,2.866293 -5.41937,8.706568 -7.75692,16.211885 -1.02779,3.3 -2.73435,6.7875 -3.79236,7.75 -2.07754,1.89 -7.27879,2.303234 -9.70208,0.77082 z m 32.70764,-0.791383 c -3.98311,-4.401286 -3.73799,-10.541104 0.83468,-20.907628 2.55163,-5.784677 9.35638,-13.700943 13.7144,-15.954564 3.29717,-1.705034 21.49001,-2.75984 23.72942,-1.375812 1.21124,0.748586 0.67409,3.26616 -3.32717,15.594319 -3.35067,10.323622 -4.45705,15.016173 -3.71529,15.75793 C 243.52466,56.924657 244,58.423444 244,59.67432 244,64.394087 232.34011,67.118713 229.76793,63 c -0.68696,-1.1 -1.8573,-2 -2.60075,-2 -0.74345,0 -2.49589,0.9 -3.89431,2 -3.22392,2.535935 -9.36758,2.657816 -11.56523,0.229437 z m 18.2725,-17.496457 c 4.97907,-7.605612 5.20678,-16.614921 0.31769,-12.56907 -2.50663,2.074299 -7.29616,12.966421 -7.29704,16.594564 -7.1e-4,2.933076 0.18601,3.141814 1.8698,2.090268 1.02883,-0.642513 3.32813,-3.394606 5.10955,-6.115762 z m 18.42674,16.765251 c -0.90157,-1.375972 -1.41054,-3.288472 -1.13105,-4.25 1.17563,-4.044543 16.599,-48.06203 18.04455,-51.498231 1.51981,-3.6126982 1.75802,-3.75 6.50615,-3.75 3.08919,0 5.37844,0.5420416 6.13395,1.4523785 1.24794,1.503681 1.0166,2.2678419 -8.50499,28.0931095 -6.89153,18.691794 -7.90925,22.498278 -6.58305,24.621862 C 265.51183,61.393693 261.41574,65 253.976,65 c -3.08914,0 -4.28058,-0.535221 -5.56912,-2.501769 z m 23.25377,-0.110307 c -3.33263,-3.332633 -4.2381,-8.229731 -2.75064,-14.876419 2.77064,-12.380536 14.20444,-22.827034 24.99825,-22.839675 3.56169,-0.0042 4.85799,0.517664 6.75,2.717267 2.89059,3.360505 2.96385,6.442187 0.26201,11.021457 -2.36643,4.010804 -6.09199,6.500321 -13.71763,9.166475 -4.96346,1.73538 -5.27861,2.043438 -5,4.887544 0.38668,3.947237 3.52489,4.484975 8.44134,1.44644 2.9064,-1.796252 3.97052,-2.008346 5.44773,-1.085814 1.10348,0.689137 3.60431,0.904075 6.26917,0.538815 4.00599,-0.549082 4.59898,-0.354916 6.15126,2.014163 2.07973,3.174078 3.13553,3.307264 4.0241,0.507629 0.43805,-1.380159 -0.0134,-3.039982 -1.3004,-4.780681 C 307.88522,46.573161 305,40.209696 305,37.351718 c 0,-3.43048 3.50522,-8.628227 7.35042,-10.899644 1.80905,-1.068631 5.0068,-1.737788 8.30452,-1.737788 4.34817,0 5.73936,0.434328 7.35387,2.295867 C 331.8521,31.441507 329.91301,37 324.52383,37 c -1.87319,0 -3.68391,-0.45 -4.02383,-1 -0.33992,-0.55 -1.02735,-1 -1.52763,-1 -1.29292,0 -0.045,2.86915 3.21849,7.400038 C 324.36531,45.418919 325,47.417463 325,51.245668 325,60.084696 319.12258,65 308.55342,65 c -4.56124,0 -6.08699,-0.442656 -7.95115,-2.306818 -1.26875,-1.26875 -2.49549,-2.872828 -2.72608,-3.564617 -0.28872,-0.866156 -2.26247,-0.147878 -6.3389,2.306818 C 286.60262,64.406885 284.67382,65 279.94519,65 c -4.7822,0 -6.08242,-0.409953 -8.28454,-2.612076 z m 17.30608,-26.760369 c -0.0328,-2.095651 -0.0627,-2.092252 -1.99464,0.226609 -1.07875,1.294791 -1.69872,2.779142 -1.3777,3.298559 0.91602,1.482155 3.40988,-1.124716 3.37234,-3.525168 z m 39.66813,27.299865 c -3.23281,-2.542928 -3.61037,-7.334978 -0.7006,-8.892236 3.11086,-1.664881 6.93309,-1.220457 8.29781,0.964816 0.68696,1.1 1.81578,2 2.50848,2 2.25535,0 1.33276,-4.117696 -2.24055,-10 -5.50878,-9.068422 -4.16518,-16.536182 3.70767,-20.607392 6.38194,-3.300227 16.23046,-1.479458 17.40961,3.218641 1.37366,5.47309 -3.00212,8.81434 -8.71796,6.656852 -3.2203,-1.215529 -3.07544,-0.118336 0.75895,5.748262 4.80925,7.358145 3.9016,14.727971 -2.45964,19.97144 C 344.01351,64.613246 342.75631,65 337.40701,65 c -4.69474,0 -6.75661,-0.487154 -8.77215,-2.07258 z"
         id="path2-4" />
    </g>
    <path
       style="display:inline;opacity:1;fill:#0da8e0;fill-opacity:1;stroke-width:0.219979;stroke-linecap:round;stroke-linejoin:round;stroke-miterlimit:4.5"
       d="m 582.0625,273.99414 -14.76367,2.34961 H 194.22266 c 0.005,0.0514 0.015,0.0964 0.0195,0.14844 0.27551,3.19579 -0.60259,7.70327 -2.08399,11.13086 H 563.1777 l 18.88477,4.93554 z"
       id="rect24" />
    <path
       style="display:inline;opacity:1;fill:#1079b5;fill-opacity:1;stroke-width:0.0279532;stroke-linecap:round;stroke-linejoin:round;stroke-miterlimit:4.5"
       d="m 595.92397,266.98852 -9.10363,5.25596 v 21.93782 l 9.10363,5.25596 z"
       id="path23" />
    <path
       style="display:inline;opacity:1;fill:#0286d1;fill-opacity:1;stroke-width:0.2;stroke-linecap:round;stroke-linejoin:round;stroke-miterlimit:4.5"
       d="m 380.67453,175.13355 v -6.64644 l 56.55886,-13.62519 26.35541,22.26556 v -12.79439 h 13.62519 v 23.761 l 14.58925,13.14629 c 0,0 -6.58214,3.69097 -10.22384,4.40108 -25.47329,4.96712 -80.63324,-4.50592 -80.63324,-4.50592 l -0.89224,-6.27878 -36.71272,-19.40373 6.53288,-5.42569 z"
       id="path2"
       sodipodi:nodetypes="ccccccccsccccc" />
    <path
       style="display:inline;opacity:1;fill:#ffffff;fill-opacity:1;stroke-width:0.2;stroke-linecap:round;stroke-linejoin:round;stroke-miterlimit:4.5"
       d="m 435.67378,213.68287 -35.61986,-18.82611 37.17947,-30.19135 c 0,0 29.94536,22.01791 42.30685,35.72459 l 2.68229,2.97418 z"
       id="path3"
       sodipodi:nodetypes="cccscc" />
    <path
       style="opacity:1;fill:#0286d1;fill-opacity:1;stroke-width:0.2;stroke-linecap:round;stroke-linejoin:round;stroke-miterlimit:4.5"
       d="m 196.73446,264.52809 49.51594,-41.87254 -0.66465,-40.54325 24.59181,0.33233 -0.33232,19.9393 55.1654,-47.18969 110.66314,58.48863 67.46131,-14.95448 78.0956,66.13202 z"
       id="path1" />
    <g
       id="g45"
       style="display:inline">
      <path
         style="display:inline;opacity:1;fill:#f9f9f9;stroke-width:0.2;stroke-linecap:round;stroke-linejoin:round;stroke-miterlimit:4.5"
         d="M 374.07468,-86.199355 366.00924,9.0308032 469.15292,-94.112874 Z"
         transform="rotate(45)"
         id="path45" />
      <path
         style="display:inline;opacity:1;fill:#f58f0e;fill-opacity:1;stroke-width:0.2;stroke-linecap:round;stroke-linejoin:round;stroke-miterlimit:4.5"
         d="m 356.47435,-103.79968 -11.322,133.687371 13.61595,-13.615949 9.19515,-108.582323 108.40831,-9.021139 13.57728,-13.57728 z"
         transform="rotate(45)"
         id="rect44" />
      <path
         id="rect34"
         style="display:inline;opacity:1;fill:#f9890c;fill-opacity:1;stroke-width:0.0538037;stroke-linecap:round;stroke-linejoin:round;stroke-miterlimit:4.5"
         d="m 310.04687,235.2832 v 12.21875 h 12.09847 V 235.2832 Z m 18.40153,0 v 12.21875 h 12.09848 V 235.2832 Z m -18.40153,17.07618 v 12.21874 h 12.09847 v -12.21874 z m 18.40153,0 v 12.21874 h 12.09848 v -12.21874 z" />
      <path
         id="path44"
         style="display:inline;opacity:1;fill:#f9f9f9;stroke-width:0.2;stroke-linecap:round;stroke-linejoin:round;stroke-miterlimit:4.5"
         d="m 350.3645,-109.90953 -12.45308,147.03816 7.24093,-7.240939 11.322,-133.687371 133.47469,-11.10932 7.21884,-7.21884 z m 17.59895,17.598949 -9.19515,108.582323 7.24094,-7.2409388 8.06544,-95.2301582 95.07824,-7.913519 7.21884,-7.218846 z"
         transform="rotate(45)" />
    </g>
    <g
       id="g52"
       transform="matrix(0.58975021,0,0,0.61585576,312.12437,101.8725)"
       style="display:inline;opacity:1">
      <path
         style="display:inline;opacity:1;fill:#f9f9f9;stroke-width:0.2;stroke-linecap:round;stroke-linejoin:round;stroke-miterlimit:4.5"
         d="M 374.07468,-86.199355 366.00924,9.0308032 469.15292,-94.112874 Z"
         transform="rotate(45)"
         id="path49" />
      <path
         style="display:inline;opacity:1;fill:#f58f0e;fill-opacity:1;stroke-width:0.2;stroke-linecap:round;stroke-linejoin:round;stroke-miterlimit:4.5"
         d="m 356.47435,-103.79968 -11.322,133.687371 13.61595,-13.615949 9.19515,-108.582323 108.40831,-9.021139 13.57728,-13.57728 z"
         transform="rotate(45)"
         id="path50" />
      <path
         id="path51"
         style="display:inline;opacity:1;fill:#f9890c;fill-opacity:1;stroke-width:0.0538037;stroke-linecap:round;stroke-linejoin:round;stroke-miterlimit:4.5"
         d="m 310.04687,235.2832 v 12.21875 h 12.09847 V 235.2832 Z m 18.40153,0 v 12.21875 h 12.09848 V 235.2832 Z m -18.40153,17.07618 v 12.21874 h 12.09847 v -12.21874 z m 18.40153,0 v 12.21874 h 12.09848 v -12.21874 z" />
      <path
         id="path52"
         style="display:inline;opacity:1;fill:#f9f9f9;stroke-width:0.2;stroke-linecap:round;stroke-linejoin:round;stroke-miterlimit:4.5"
         d="m 350.3645,-109.90953 -12.45308,147.03816 7.24093,-7.240939 11.322,-133.687371 133.47469,-11.10932 7.21884,-7.21884 z m 17.59895,17.598949 -9.19515,108.582323 7.24094,-7.2409388 8.06544,-95.2301582 95.07824,-7.913519 7.21884,-7.218846 z"
         transform="rotate(45)" />
    </g>
    <path
       id="rect56"
       style="display:inline;opacity:1;fill:#f9890c;fill-opacity:1;stroke-width:0.203495;stroke-linecap:round;stroke-linejoin:round;stroke-miterlimit:4.5"
       d="m 429.63867,189.63672 v 14.45117 h 7.24219 v -6.87305 h -7.19727 v -0.70507 h 7.19727 v -6.87305 z m 7.94727,0 v 6.87305 h 7.19531 v 0.70507 h -7.19531 v 6.87305 h 7.24218 v -14.45117 z" />
    <path
       id="path4"
       style="display:inline;opacity:1;fill:#06a3d9;fill-opacity:1;stroke-width:0.2;stroke-linecap:round;stroke-linejoin:round;stroke-miterlimit:4.5"
       d="m 559.50391,128.77344 -51.34375,10.45703 -0.55274,63.28515 7.14258,6.04883 v -62.45703 h 8.75391 v 69.86914 l 7.24609,6.13672 v -80.00586 h 8.75391 v 87.41797 l 5.24609,4.44336 v -91.86133 h 8.75391 v 99.27344 l 8.8789,7.51953 18.84766,15.96094 3.65625,-124.6211 -20.52734,-9.9707 z" />
    <path
       sodipodi:type="star"
       style="opacity:1;fill:#06a3d9;fill-opacity:1;stroke-width:0.2;stroke-linecap:round;stroke-linejoin:round;stroke-miterlimit:4.5"
       id="path5"
       inkscape:flatsided="false"
       sodipodi:sides="4"
       sodipodi:cx="176.13051"
       sodipodi:cy="51.177544"
       sodipodi:r1="12.645704"
       sodipodi:r2="6.3228521"
       sodipodi:arg1="1.5707963"
       sodipodi:arg2="2.3561945"
       inkscape:rounded="0"
       inkscape:randomized="0"
       d="m 176.13051,63.823248 -4.47093,-8.174773 -8.17478,-4.470931 8.17478,-4.470932 4.47093,-8.174773 4.47093,8.174773 8.17477,4.470931 -8.17477,4.470932 z"
       transform="matrix(0.73720584,0,0,0.73720584,79.493151,172.29894)" />
    <path
       sodipodi:type="star"
       style="opacity:1;fill:#06a3d9;fill-opacity:1;stroke-width:0.2;stroke-linecap:round;stroke-linejoin:round;stroke-miterlimit:4.5"
       id="path6"
       inkscape:flatsided="false"
       sodipodi:sides="4"
       sodipodi:cx="176.13051"
       sodipodi:cy="51.177544"
       sodipodi:r1="12.645704"
       sodipodi:r2="6.3228521"
       sodipodi:arg1="1.5707963"
       sodipodi:arg2="2.3561945"
       inkscape:rounded="0"
       inkscape:randomized="0"
       d="m 176.13051,63.823248 -4.47093,-8.174773 -8.17478,-4.470931 8.17478,-4.470932 4.47093,-8.174773 4.47093,8.174773 8.17477,4.470931 -8.17477,4.470932 z"
       transform="matrix(0.73720584,0,0,0.73720584,145.96511,128.78227)" />
    <path
       sodipodi:type="star"
       style="opacity:1;fill:#06a3d9;fill-opacity:1;stroke-width:0.2;stroke-linecap:round;stroke-linejoin:round;stroke-miterlimit:4.5"
       id="path7"
       inkscape:flatsided="false"
       sodipodi:sides="4"
       sodipodi:cx="176.13051"
       sodipodi:cy="51.177544"
       sodipodi:r1="12.645704"
       sodipodi:r2="6.3228521"
       sodipodi:arg1="1.5707963"
       sodipodi:arg2="2.3561945"
       inkscape:rounded="0"
       inkscape:randomized="0"
       d="m 176.13051,63.823248 -4.47093,-8.174773 -8.17478,-4.470931 8.17478,-4.470932 4.47093,-8.174773 4.47093,8.174773 8.17477,4.470931 -8.17477,4.470932 z"
       transform="matrix(0.73720584,0,0,0.73720584,268.92415,100.2026)" />
    <path
       sodipodi:type="star"
       style="opacity:1;fill:#06a3d9;fill-opacity:1;stroke-width:0.2;stroke-linecap:round;stroke-linejoin:round;stroke-miterlimit:4.5"
       id="path8"
       inkscape:flatsided="false"
       sodipodi:sides="4"
       sodipodi:cx="176.13051"
       sodipodi:cy="51.177544"
       sodipodi:r1="12.645704"
       sodipodi:r2="6.3228521"
       sodipodi:arg1="1.5707963"
       sodipodi:arg2="2.3561945"
       inkscape:rounded="0"
       inkscape:randomized="0"
       d="m 176.13051,63.823248 -4.47093,-8.174773 -8.17478,-4.470931 8.17478,-4.470932 4.47093,-8.174773 4.47093,8.174773 8.17477,4.470931 -8.17477,4.470932 z"
       transform="matrix(0.73720584,0,0,0.73720584,326.08349,110.8369)" />
    <path
       sodipodi:type="star"
       style="opacity:1;fill:#06a3d9;fill-opacity:1;stroke-width:0.2;stroke-linecap:round;stroke-linejoin:round;stroke-miterlimit:4.5"
       id="path9"
       inkscape:flatsided="false"
       sodipodi:sides="4"
       sodipodi:cx="176.13051"
       sodipodi:cy="51.177544"
       sodipodi:r1="12.645704"
       sodipodi:r2="6.3228521"
       sodipodi:arg1="1.5707963"
       sodipodi:arg2="2.3561945"
       inkscape:rounded="0"
       inkscape:randomized="0"
       d="m 176.13051,63.823248 -4.47093,-8.174773 -8.17478,-4.470931 8.17478,-4.470932 4.47093,-8.174773 4.47093,8.174773 8.17477,4.470931 -8.17477,4.470932 z"
       transform="matrix(0.73720584,0,0,0.73720584,297.83614,81.92491)" />
    <path
       style="display:inline;opacity:1;fill:#1061ba;fill-opacity:1;stroke-width:0.2;stroke-linecap:round;stroke-linejoin:round;stroke-miterlimit:4.5"
       d="m 208.72573,113.79249 c 7.28339,-2.85242 17.75152,-10.55121 25.81038,-16.034549 8.05886,-5.48334 13.70822,-8.751107 20.57628,-12.074357 6.86806,-3.32325 14.9544,-6.701789 21.65627,-9.360383 6.70188,-2.658593 12.01892,-4.597098 19.13623,-6.591048 7.11731,-1.99395 16.03443,-4.043226 23.53943,-5.372519 7.50499,-1.329293 13.59743,-1.938537 19.41311,-2.243165 5.81569,-0.304629 11.35428,-0.304629 17.16997,0.0277 5.81569,0.332328 11.90813,0.996958 17.52996,1.855467 5.62183,0.858508 10.77271,1.910838 15.31448,2.880119 4.54177,0.969281 8.47417,1.855455 13.01595,3.18476 4.54178,1.329304 9.69266,3.10165 14.73293,4.874051 5.04026,1.772401 9.9696,3.544747 16.03454,6.064885 6.06494,2.520138 13.2651,5.787903 19.24694,8.695744 5.98184,2.907842 10.74502,5.45559 16.61611,8.778849 5.87109,3.323256 12.8497,7.421816 18.52691,11.021996 5.67721,3.60018 10.05269,6.70179 13.90212,9.41577 3.84942,2.71399 7.17257,5.04019 6.4525,3.90471 -0.72008,-1.13547 -5.48327,-5.73251 -12.76675,-11.52051 -7.28348,-5.788 -17.08678,-12.766622 -26.41957,-18.748462 -9.33279,-5.98184 -18.19452,-10.966565 -27.83195,-15.369867 -9.63744,-4.403301 -20.04998,-8.224924 -28.80119,-11.021983 -8.75121,-2.797058 -15.8406,-4.569406 -23.34561,-5.981783 -7.50501,-1.412378 -15.42519,-2.464709 -20.99161,-3.129356 -5.56642,-0.664646 -8.7788,-0.941575 -14.26218,-1.107737 -5.48339,-0.166161 -13.23741,-0.221547 -20.54856,0.138476 -7.31114,0.360023 -14.17898,1.135424 -21.35167,2.215483 -7.17268,1.08006 -14.64977,2.464706 -21.6009,4.154029 -6.95113,1.689324 -13.37589,3.683215 -20.07778,6.120269 -6.70189,2.437055 -13.68051,5.31712 -19.10847,7.671083 -5.42796,2.353964 -9.30496,4.181693 -13.34825,6.314115 -4.04329,2.132422 -8.25262,4.569401 -12.48976,7.20031 -4.23715,2.630909 -8.50186,5.455588 -12.65592,8.41882 -4.15406,2.963233 -8.19723,6.064843 -11.27122,8.501883 -3.074,2.43704 -5.17866,4.20939 -4.18166,6.09256 0.99701,1.88318 5.09556,3.87707 12.37894,1.02464 z"
       id="path12"
       inkscape:path-effect="#path-effect12"
       inkscape:original-d="m 205.54098,118.63885 c 10.46814,-7.69878 20.93627,-15.39757 31.40441,-23.096355 5.64958,-3.267896 11.29894,-6.535661 16.94841,-9.803491 8.08665,-3.378672 16.17299,-6.757208 24.25948,-10.135812 5.31726,-1.938582 10.6343,-3.877087 15.95144,-5.81563 8.91748,-2.049359 17.8346,-4.098635 26.7519,-6.147952 6.09269,-0.609269 12.18513,-1.218513 18.2777,-1.82777 5.5388,0 11.07739,0 16.61608,0 6.09269,0.664657 12.18513,1.329287 18.2777,1.993931 5.15109,1.052373 10.30197,2.104704 15.45296,3.157056 3.93255,0.886209 7.86495,1.772382 11.79742,2.658574 5.15109,1.772418 10.30197,3.544765 15.45296,5.317147 4.92954,1.772418 9.85888,3.544765 14.78832,5.317148 7.20044,3.267895 14.4006,6.53566 21.60091,9.803491 4.76337,2.54785 9.52655,5.095599 14.28983,7.643399 6.9789,4.098714 13.95751,8.197274 20.93627,12.295904 4.37566,3.10173 8.75114,6.20334 13.12671,9.30501 3.32328,2.3263 6.64643,4.6525 9.96965,6.97875 -4.76337,-4.5972 -9.52656,-9.19423 -14.28983,-13.79135 -9.80369,-6.97889 -19.60699,-13.957509 -29.41048,-20.936266 -8.86209,-4.984925 -17.72382,-9.969651 -26.58573,-14.954477 -10.41296,-3.821776 -20.8255,-7.6434 -31.23825,-11.4651 -7.08967,-1.772417 -14.17906,-3.544765 -21.26859,-5.317147 -7.92049,-1.052373 -15.84067,-2.104704 -23.761,-3.157056 -3.21251,-0.276941 -6.42489,-0.55387 -9.63733,-0.830805 -7.75433,-0.05539 -15.50835,-0.110774 -23.26252,-0.166161 -6.86812,0.775433 -13.73596,1.550835 -20.60395,2.326252 -7.47738,1.384702 -14.95447,2.769348 -22.43171,4.154022 -6.42502,1.99397 -12.84978,3.987861 -19.27466,5.981791 -6.9789,2.880179 -13.95752,5.760243 -20.93627,8.640365 -3.87717,1.827806 -7.75417,3.655539 -11.63126,5.483308 -4.20949,2.437075 -8.41882,4.874052 -12.62823,7.311078 -4.26488,2.824791 -8.52959,5.649469 -12.79438,8.474204 -4.04333,3.101732 -8.0865,6.203342 -12.12975,9.305012 -2.10474,1.77241 -4.2094,3.54476 -6.31411,5.31714 4.09872,1.99397 8.19727,3.98786 12.2959,5.98179 z" />
    <path
       style="display:inline;opacity:1;fill:#f58f0e;fill-opacity:1;stroke-width:0.0439034;stroke-linecap:round;stroke-linejoin:round;stroke-miterlimit:4.5"
       d="m 437.33792,168.23498 -30.81667,26.96951 h 4.22699 l 26.58968,-23.40279 33.18211,29.38458 h 4.21499 z"
       id="path16"
       sodipodi:nodetypes="ccccccc" />
    <path
       style="display:inline;opacity:1;fill:#1270d2;fill-opacity:1;stroke-width:0.2;stroke-linecap:round;stroke-linejoin:round;stroke-miterlimit:4.5"
       d="m 114.92819,245.18931 c 1.58617,-5.07182 3.19191,-4.28853 4.93475,-3.72064 1.74284,0.56789 3.6227,0.92036 5.77678,0.84203 2.15407,-0.0783 4.58216,-0.58745 4.4255,2.34994 -0.15666,2.93739 -2.89807,9.32096 -2.72182,12.63042 0.17624,3.30946 3.27018,3.54444 5.20883,3.8186 1.93865,0.27416 2.72192,0.58746 3.36814,1.23369 0.64622,0.64622 1.15535,1.62532 1.23368,2.52611 0.0783,0.90079 -0.27416,1.72323 -4.83691,2.91776 -4.56275,1.19453 -13.33524,2.76105 -16.93845,-1.91921 -3.6032,-4.68025 -2.03666,-15.60688 -0.4505,-20.6787 z"
       id="path18"
       inkscape:path-effect="#path-effect18"
       inkscape:original-d="m 114.90861,239.3342 c 1.60575,0.78329 3.21149,1.56658 4.81724,2.34987 1.87993,0.35249 3.75979,0.70496 5.63968,1.05744 2.42826,-0.50915 4.85635,-1.01827 7.2846,-1.52741 -2.74157,6.38393 -5.48298,12.7675 -8.22454,19.15143 3.09405,0.23499 6.18799,0.46997 9.28198,0.70496 0.78331,0.31333 1.56658,0.62664 2.34987,0.93995 0.50915,0.97913 1.01828,1.95823 1.52742,2.93734 -0.35249,0.82247 -0.70497,1.64491 -1.05745,2.46736 -8.77302,1.56661 -17.54551,3.13313 -26.31853,4.69974 1.56661,-10.92712 3.13315,-21.85375 4.69973,-32.78068 z"
       sodipodi:nodetypes="ccccccccccc" />
    <path
       id="path10"
       style="opacity:1;fill:url(#linearGradient11);fill-opacity:1;stroke-width:0.2;stroke-linecap:round;stroke-linejoin:round;stroke-miterlimit:4.5"
       inkscape:transform-center-x="18.894974"
       inkscape:transform-center-y="3.2597535e-06"
       transform="matrix(0.45580898,0,0,0.50115823,364.25354,223.90788)"
       d="M -218.45197,-172.95039 25.1668,-275.43765 25.895894,-102.2923 Z"
       sodipodi:nodetypes="cccc" />
    <path
       style="display:inline;opacity:1;fill:#1270d2;fill-opacity:1;stroke-width:0.2;stroke-linecap:round;stroke-linejoin:round;stroke-miterlimit:4.5"
       d="m 113.61618,245.4243 c 0.27415,-4.83683 -0.7441,-3.5836 0.99876,-3.0157 1.74285,0.56789 6.24668,0.4504 9.02737,0.25458 2.78069,-0.19583 3.83808,-0.46996 3.68142,2.46743 -0.15666,2.9374 -1.52736,9.08598 -0.66572,12.27795 0.86163,3.19196 3.95557,3.42694 5.89422,3.7011 1.93865,0.27416 2.72192,0.58746 3.36814,1.23369 0.64622,0.64622 1.15535,1.62532 1.23368,2.52611 0.0783,0.90079 -0.27416,1.72323 -4.83691,2.91776 -4.56275,1.19453 -13.33524,2.76105 -16.93845,-1.91921 -3.6032,-4.68025 -2.03666,-15.60688 -1.76251,-20.44371 z"
       id="path24"
       inkscape:path-effect="#path-effect25"
       inkscape:original-d="m 114.90861,239.3342 c -1.01828,1.25327 -2.03653,2.5065 -3.05482,3.75979 4.504,-0.11749 9.00783,-0.23499 13.51174,-0.35248 1.05747,-0.27416 2.11486,-0.54829 3.17233,-0.82245 -1.37079,6.14895 -2.74149,12.29753 -4.11227,18.44647 3.09405,0.23499 6.18799,0.46997 9.28198,0.70496 0.78331,0.31333 1.56658,0.62664 2.34987,0.93995 0.50915,0.97913 1.01828,1.95823 1.52742,2.93734 -0.35249,0.82247 -0.70497,1.64491 -1.05745,2.46736 -8.77302,1.56661 -17.54551,3.13313 -26.31853,4.69974 1.56661,-10.92712 3.13315,-21.85375 4.69973,-32.78068 z"
       sodipodi:nodetypes="ccccccccccc"
       transform="translate(40,-2)" />
    <path
       id="path29"
       style="display:inline;opacity:1;fill:#1a1a1a;stroke-width:0.187156;stroke-linecap:round;stroke-linejoin:round;stroke-miterlimit:4.5"
       d="m 160.70907,89.463326 c 0,9.030954 -6.5287,17.182794 -13.5574,17.182794 -7.02872,1e-5 -11.89581,-8.151835 -11.89581,-17.182794 0,-9.030959 5.6979,-16.351998 12.72661,-16.351996 7.02871,5e-6 12.7266,7.321042 12.7266,16.351996 z"
       sodipodi:nodetypes="sssss" />
    <path
       id="ellipse11"
       style="display:inline;opacity:1;fill:#f9b752;fill-opacity:1;stroke-width:0.337536;stroke-linecap:round;stroke-linejoin:round;stroke-miterlimit:4.5"
       d="m 147.38477,64.375 c -10.18587,3.78e-4 -18.44311,11.424802 -18.44336,25.517578 -1.58784,2.257973 1.38346,11.719952 2.95708,14.445552 0,0 -2.3327,0.0228 -3.88876,1.40601 l -6.22461,5.5332 c -3.14669,2.4871 -5.80562,5.25725 -7.74414,8.30078 -1.93856,3.04357 -3.15707,6.36158 -3.71094,10.75196 -0.55387,4.39034 -0.4427,9.85256 0.27734,13.73242 0.72004,3.87986 2.04886,6.1761 4.20899,7.76758 2.16009,1.59147 5.15239,2.478 8.73632,3.44531 0.94794,0.25585 1.93758,0.51377 2.92579,0.77344 l -0.1211,-0.0274 0.0566,10.40235 -0.35742,3.15234 -4.96484,16.39844 0.0137,0.004 c -4.7536,9.14763 -7.72059,19.76834 -9.55664,27.03906 -2.7694,10.96675 -2.99084,14.29114 -1.55078,17.83594 1.44006,3.54475 4.3082,9.07299 7.74218,11.17773 3.43401,2.10474 7.19909,2.54605 10.30079,1.99219 3.10166,-0.55386 5.77337,-3.86623 8.0996,-7.18946 2.32628,-3.32318 4.54261,-8.41818 6.42579,-8.86132 1.88313,-0.44315 3.43407,3.76632 5.0957,6.64648 1.66162,2.88016 5.66645,7.36854 8.87891,8.0332 3.21243,0.66466 7.86425,0.4426 11.1875,-1.66211 3.32322,-2.10466 3.08478,-9.02915 3.63867,-21.8789 0.21495,-4.9867 0.20524,-11.31085 -0.34375,-17.79492 l 0.008,0.002 -0.69336,-22.73047 c 0.0104,1.3e-4 0.26172,0.002 0.26172,0.002 l -0.43555,-5.66406 -0.38672,-12.67383 h -0.29101 l 0.17383,-8.68554 -0.70508,-3.52539 -1.64453,-23.26368 c 0,0 2.77232,-11.02057 0.76367,-15.62062 -1.01019,-2.31346 -3.53091,-3.10467 -5.8086,-4.27781 2.27143,-4.31209 3.55899,-9.53223 3.5625,-14.986332 C 165.82794,75.799777 157.57063,64.375386 147.38477,64.375 Z m 0,8.736328 c 6.69844,6.44e-4 12.1285,7.513534 12.1289,16.78125 3.8e-4,9.268479 -5.42991,16.782562 -12.1289,16.783202 -6.69902,-6.4e-4 -12.12929,-7.514718 -12.12891,-16.783202 4e-4,-9.267722 5.43044,-16.780614 12.12891,-16.78125 z"
       sodipodi:nodetypes="cccscsssssccccccsssscsssssccccccccccsccccscsc" />
    <path
       id="rect15"
       style="display:inline;opacity:1;fill:#1c6ad0;fill-opacity:1;stroke-width:0.154231;stroke-linecap:round;stroke-linejoin:round;stroke-miterlimit:4.5"
       d="m 148.27734,146.04492 c -0.716,0 -1.29296,0.57501 -1.29296,1.29102 0,0.33235 0.12537,0.63476 0.33007,0.86328 -5.90302,0.0622 -11.35547,0.41406 -11.35547,0.41406 v 9.5293 c 0,0 16.81605,4.7471 22.00196,0 2.4538,-2.24618 2.98659,-9.13645 0,-9.5293 -0.59339,-0.078 -1.2504,-0.13731 -1.93164,-0.1914 0.35544,-0.22981 0.58984,-0.62942 0.58984,-1.08594 0,-0.71601 -0.57696,-1.29102 -1.29297,-1.29102 z" />
    <path
       style="opacity:1;fill:#f9b752;fill-opacity:1;stroke-width:0.2;stroke-linecap:round;stroke-linejoin:round;stroke-miterlimit:4.5"
       d="m 157.55875,110.20888 c 0,0 7.22714,-1.72576 10.80939,-1.17494 15.51331,2.3854 43.12011,18.91645 43.12011,18.91645 l 12.00991,3.4788 -1.17493,13.62924 -56.42245,-14.99316"
       id="path25"
       sodipodi:nodetypes="cscccc" />
    <path
       style="display:inline;opacity:1;fill:#f58f0e;fill-opacity:1;stroke-width:0.2;stroke-linecap:round;stroke-linejoin:round;stroke-miterlimit:4.5"
       d="m 208.72573,113.79249 c 7.28339,-2.85242 17.75152,-10.55121 25.81038,-16.034549 8.05886,-5.48334 13.70822,-8.751107 20.57628,-12.074357 6.86806,-3.32325 14.9544,-6.701789 21.65627,-9.360383 6.70188,-2.658593 12.01892,-4.597098 19.13623,-6.591048 7.11731,-1.99395 16.03443,-4.043226 23.53943,-5.372519 7.50499,-1.329293 13.59743,-1.938537 19.41311,-2.243165 5.81569,-0.304629 11.35428,-0.304629 17.16997,0.0277 5.81569,0.332328 11.90813,0.996958 17.52996,1.855467 5.62183,0.858508 10.77271,1.910838 15.31448,2.880119 4.54177,0.969281 8.47417,1.855455 13.01595,3.18476 4.54178,1.329304 9.69266,3.10165 14.73293,4.874051 5.04026,1.772401 9.9696,3.544747 16.03454,6.064885 6.06494,2.520138 13.2651,5.787903 19.24694,8.695744 5.98184,2.907842 10.74502,5.45559 16.61611,8.778849 5.87109,3.323256 12.8497,7.421816 18.52691,11.021996 5.67721,3.60018 10.05269,6.70179 13.90212,9.41577 3.84942,2.71399 7.17257,5.04019 6.4525,3.90471 -0.72008,-1.13547 -5.48327,-5.73251 -12.76675,-11.52051 -7.28348,-5.788 -17.08678,-12.766622 -26.41957,-18.748462 -9.33279,-5.98184 -18.19452,-10.966565 -27.83195,-15.369867 -9.63744,-4.403301 -20.04998,-8.224924 -28.80119,-11.021983 -8.75121,-2.797058 -15.8406,-4.569406 -23.34561,-5.981783 -7.50501,-1.412378 -15.42519,-2.464709 -20.99161,-3.129356 -5.56642,-0.664646 -8.7788,-0.941575 -14.26218,-1.107737 -5.48339,-0.166161 -13.23741,-0.221547 -20.54856,0.138476 -7.31114,0.360023 -14.17898,1.135424 -21.35167,2.215483 -7.17268,1.08006 -14.64977,2.464706 -21.6009,4.154029 -6.95113,1.689324 -13.37589,3.683215 -20.07778,6.120269 -6.70189,2.437055 -13.68051,5.31712 -19.10847,7.671083 -5.42796,2.353964 -9.30496,4.181693 -13.34825,6.314115 -4.04329,2.132422 -8.25262,4.569401 -12.48976,7.20031 -4.23715,2.630909 -8.50186,5.455588 -12.65592,8.41882 -4.15406,2.963233 -8.19723,6.064843 -11.27122,8.501883 -3.074,2.43704 -5.17866,4.20939 -4.18166,6.09256 0.99701,1.88318 5.09556,3.87707 12.37894,1.02464 z"
       id="path27"
       inkscape:path-effect="#path-effect28"
       inkscape:original-d="m 205.54098,118.63885 c 10.46814,-7.69878 20.93627,-15.39757 31.40441,-23.096355 5.64958,-3.267896 11.29894,-6.535661 16.94841,-9.803491 8.08665,-3.378672 16.17299,-6.757208 24.25948,-10.135812 5.31726,-1.938582 10.6343,-3.877087 15.95144,-5.81563 8.91748,-2.049359 17.8346,-4.098635 26.7519,-6.147952 6.09269,-0.609269 12.18513,-1.218513 18.2777,-1.82777 5.5388,0 11.07739,0 16.61608,0 6.09269,0.664657 12.18513,1.329287 18.2777,1.993931 5.15109,1.052373 10.30197,2.104704 15.45296,3.157056 3.93255,0.886209 7.86495,1.772382 11.79742,2.658574 5.15109,1.772418 10.30197,3.544765 15.45296,5.317147 4.92954,1.772418 9.85888,3.544765 14.78832,5.317148 7.20044,3.267895 14.4006,6.53566 21.60091,9.803491 4.76337,2.54785 9.52655,5.095599 14.28983,7.643399 6.9789,4.098714 13.95751,8.197274 20.93627,12.295904 4.37566,3.10173 8.75114,6.20334 13.12671,9.30501 3.32328,2.3263 6.64643,4.6525 9.96965,6.97875 -4.76337,-4.5972 -9.52656,-9.19423 -14.28983,-13.79135 -9.80369,-6.97889 -19.60699,-13.957509 -29.41048,-20.936266 -8.86209,-4.984925 -17.72382,-9.969651 -26.58573,-14.954477 -10.41296,-3.821776 -20.8255,-7.6434 -31.23825,-11.4651 -7.08967,-1.772417 -14.17906,-3.544765 -21.26859,-5.317147 -7.92049,-1.052373 -15.84067,-2.104704 -23.761,-3.157056 -3.21251,-0.276941 -6.42489,-0.55387 -9.63733,-0.830805 -7.75433,-0.05539 -15.50835,-0.110774 -23.26252,-0.166161 -6.86812,0.775433 -13.73596,1.550835 -20.60395,2.326252 -7.47738,1.384702 -14.95447,2.769348 -22.43171,4.154022 -6.42502,1.99397 -12.84978,3.987861 -19.27466,5.981791 -6.9789,2.880179 -13.95752,5.760243 -20.93627,8.640365 -3.87717,1.827806 -7.75417,3.655539 -11.63126,5.483308 -4.20949,2.437075 -8.41882,4.874052 -12.62823,7.311078 -4.26488,2.824791 -8.52959,5.649469 -12.79438,8.474204 -4.04333,3.101732 -8.0865,6.203342 -12.12975,9.305012 -2.10474,1.77241 -4.2094,3.54476 -6.31411,5.31714 4.09872,1.99397 8.19727,3.98786 12.2959,5.98179 z"
       transform="matrix(-0.93010603,-0.08254682,-0.08018911,0.95745283,694.3609,48.350044)" />
    <rect
       style="display:inline;opacity:1;fill:#bdf0f8;fill-opacity:1;stroke-width:0.250875;stroke-linecap:round;stroke-linejoin:round;stroke-miterlimit:4.5"
       id="rect28"
       width="19.773149"
       height="6.7253661"
       x="137.24887"
       y="79.310707"
       ry="0.89851522" />
    <path
       style="display:inline;opacity:1;fill:#5ed1f5;fill-opacity:1;stroke-width:0.2;stroke-linecap:round;stroke-linejoin:round;stroke-miterlimit:4.5"
       d="m 137.33195,91.720796 h 6.8126 l 3.05727,-5.062842 3.17376,4.938223 6.68797,0.16616 -0.12458,-10.135812 -19.69007,-0.04154 z"
       id="path28"
       sodipodi:nodetypes="cccccccc" />
    <path
       style="display:inline;opacity:1;fill:#3d9bdb;fill-opacity:1;stroke-width:0.2;stroke-linecap:round;stroke-linejoin:round;stroke-miterlimit:4.5"
       d="m 242.34562,136.58423 c -1.88917,-3.1937 -10.96662,-1.91085 -10.96662,-1.91085 l -6.93722,3.15706 0.74772,5.35868 0.66465,1.78623 c 0,0 10.69332,0.81074 14.41446,-2.32625 1.6338,-1.37732 3.16496,-4.22567 2.07701,-6.06487 z"
       id="path33"
       sodipodi:nodetypes="sccccss" />
    <path
       style="display:inline;opacity:1;fill:#093f77;fill-opacity:1;stroke-width:0.2;stroke-linecap:round;stroke-linejoin:round;stroke-miterlimit:4.5"
       d="m 223.3202,131.68248 -0.74773,1.91085 -0.8308,5.31715 0.58156,6.14795 c 0,0 5.74104,1.7831 7.06184,-0.16616 0.71273,-1.05186 -1.02447,-2.33898 -1.32929,-3.57246 -0.20767,-0.84033 -0.38278,-1.71135 -0.33232,-2.57549 0.0399,-0.68393 0.0848,-1.44784 0.49848,-1.99393 0.53928,-0.71188 1.6025,-0.80604 2.32625,-1.32929 0.30193,-0.21829 0.8703,-0.37724 0.83081,-0.74772 -0.13158,-1.23442 -3.2312,-1.85186 -3.2312,-1.85186 z"
       id="path32"
       sodipodi:nodetypes="ccccsssssscc" />
    <rect
       style="opacity:1;fill:#3a392c;fill-opacity:1;stroke-width:0.203182;stroke-linecap:round;stroke-linejoin:round;stroke-miterlimit:4.5"
       id="rect31"
       width="52.939171"
       height="3.6422975"
       x="200.61174"
       y="136.40993"
       ry="0" />
    <rect
       style="opacity:1;fill:#a9bcca;fill-opacity:1;stroke-width:0.152593;stroke-linecap:round;stroke-linejoin:round;stroke-miterlimit:4.5"
       id="rect30"
       width="23.381193"
       height="9.63445"
       x="179.5778"
       y="135.235"
       ry="1.5274152" />
    <rect
       style="display:inline;opacity:1;fill:#1a1a1a;fill-opacity:1;stroke-width:0.208167;stroke-linecap:round;stroke-linejoin:round;stroke-miterlimit:4.5"
       id="rect29"
       width="34.308086"
       height="12.219318"
       x="147.10182"
       y="133.94257"
       ry="4.4278889" />
    <path
       id="path31"
       style="opacity:1;fill:#808080;fill-opacity:1;stroke-width:0.2;stroke-linecap:round;stroke-linejoin:round;stroke-miterlimit:4.5"
       inkscape:transform-center-x="1.779898"
       inkscape:transform-center-y="-3.2120319e-06"
       d="m 242.72854,155.38199 -3.94786,2.27919 h 0.2356 v 1.91042 h -0.23356 l 3.94582,2.27817 z"
       transform="matrix(1.9066891,0,0,1.9066891,-202.17895,-164.2007)" />
    <path
       id="path34"
       style="display:inline;opacity:1;fill:#674431;fill-opacity:1;stroke-width:0.2;stroke-linecap:round;stroke-linejoin:round;stroke-miterlimit:4.5"
       d="m 130.72782,104.17264 c -1.30434,-0.0184 -3.05524,0.95508 -2.92578,2.02734 0.5895,4.8827 8.93372,10.27864 8.7253,15.99338 -0.2158,5.91702 -8.22461,15.74414 -8.22461,15.74414 0,0 0.75247,2.15779 1.64454,2.11523 5.83871,-0.27855 8.53689,-9.02346 9.40039,-14.80468 1.04429,-6.9916 -3.36321,-16.33653 -7.55148,-20.6926 -0.24952,-0.25952 -0.63358,-0.37667 -1.06836,-0.38281 z m 32.58077,1.31369 c -1.38634,-0.0251 -1.82169,-0.8993 -1.44278,-0.0489 1.59859,3.58758 3.18767,9.34569 4.03458,13.70129 0.64304,3.30712 -1.08303,8.13651 0.23633,10.10352 1.31936,1.96701 1.5299,3.13626 3.75976,1.64648 2.22987,-1.48978 0.16506,-8.00904 -0.23632,-11.98437 -0.39202,-3.88258 -2.60058,-7.44395 -3.23683,-11.22485 -0.19863,-1.18034 -1.3323,-2.16079 -3.11474,-2.19312 z"
       sodipodi:nodetypes="ssscssssssssssss" />
    <path
       style="opacity:1;fill:#333333;fill-opacity:1;stroke-width:0.2;stroke-linecap:round;stroke-linejoin:round;stroke-miterlimit:4.5"
       d="m 114.45822,160.92689 c -0.33289,0.43081 -0.99869,1.29243 -1.31201,2.36945 -0.31331,1.07703 -0.27415,2.36945 0.0196,3.68147 0.29374,1.31203 0.84203,2.6436 1.84074,3.95562 0.99871,1.31203 2.44777,2.60443 3.81854,3.46605 1.37077,0.86163 2.66317,1.29242 3.89687,1.62532 1.23369,0.3329 2.4086,0.56788 3.89687,0.52872 1.48826,-0.0392 3.2898,-0.35248 4.91514,-0.88121 1.62534,-0.52872 3.07439,-1.27283 4.22975,-2.27154 1.15537,-0.99871 2.01697,-2.25195 2.74152,-3.97521 0.72455,-1.72326 1.312,-3.91642 1.68407,-5.52217 0.37206,-1.60576 0.52871,-2.62402 0.92037,-5.20891 0.39165,-2.5849 1.01827,-6.73626 1.4295,-9.18404 0.41123,-2.44779 0.60705,-3.1919 0.97911,-3.83812 0.37207,-0.64622 0.92036,-1.19451 1.80673,-1.4837 0.88638,-0.28919 2.11074,-0.31925 2.72296,-1.64633 0.61223,-1.32707 0.61223,-3.95099 -0.17623,-5.26758 -0.78847,-1.31658 -2.36534,-1.32568 -3.40836,-0.89941 -1.04303,0.42626 -1.55215,1.28786 -2.15921,2.01241 -0.60706,0.72455 -1.312,1.31201 -1.99738,2.21281 -0.68539,0.90079 -1.35117,2.11486 -1.97781,3.15273 -0.62664,1.03787 -1.2141,1.89947 -1.52742,3.54441 -0.31331,1.64493 -0.35248,4.07308 -0.43081,6.16839 -0.0783,2.09532 -0.19582,3.85769 -0.56789,5.89426 -0.37206,2.03658 -0.99869,4.34724 -1.58616,5.91383 -0.58747,1.56659 -1.13576,2.38902 -1.95822,3.09399 -0.82247,0.70497 -1.91906,1.29243 -3.03525,1.74282 -1.1162,0.45039 -2.25195,0.7637 -3.28982,0.80287 -1.03787,0.0392 -1.9778,-0.19582 -2.85901,-0.46998 -0.88121,-0.27415 -1.70364,-0.58746 -2.29111,-0.95953 -0.58748,-0.37207 -0.93995,-0.80287 -1.29243,-1.50784 -0.35249,-0.70497 -0.70496,-1.68406 -0.95953,-2.72193 -0.25457,-1.03787 -0.41122,-2.13446 -0.68538,-3.01566 -0.27415,-0.8812 -0.66579,-1.54699 -1.19452,-1.80156 -0.52872,-0.25457 -1.19451,-0.0979 -1.52741,-0.0196 -0.3329,0.0783 -0.3329,0.0783 -0.6658,0.50915 z"
       id="path38"
       inkscape:path-effect="#path-effect39"
       inkscape:original-d="m 114.79112,160.49608 c -0.66579,0.86162 -1.33159,1.72324 -1.99739,2.58486 0.0392,1.29243 0.0783,2.58485 0.1175,3.87728 0.54831,1.33162 1.0966,2.66319 1.6449,3.99478 1.44912,1.29246 2.89818,2.58486 4.34726,3.87729 1.29246,0.43081 2.58486,0.86161 3.87729,1.29242 1.17496,0.235 2.34987,0.46998 3.5248,0.70496 1.8016,-0.31332 3.60314,-0.62663 5.4047,-0.93994 1.44912,-0.74414 2.89817,-1.48825 4.34726,-2.23238 0.86164,-1.25329 1.72324,-2.50653 2.58486,-3.75979 0.58748,-2.19326 1.17493,-4.38642 1.7624,-6.57963 0.15666,-1.0183 0.31331,-2.03656 0.46997,-3.05483 0.62665,-4.15152 1.25327,-8.30288 1.8799,-12.45431 0.19582,-0.74414 0.39164,-1.48825 0.58747,-2.23238 0.54831,-0.54831 1.0966,-1.0966 1.6449,-1.64491 1.22445,-0.0301 2.44881,-0.0601 3.67326,-0.0902 0,-2.62408 0,-5.248 0,-7.87207 -1.57693,-0.009 -3.1538,-0.0182 -4.7307,-0.0273 -0.50915,0.86163 -1.01827,1.72323 -1.52741,2.58485 -0.70498,0.58748 -1.40992,1.17494 -2.11488,1.76241 -0.66581,1.21412 -1.3316,2.42819 -1.99739,3.64229 -0.58748,0.86164 -1.17494,1.72324 -1.76241,2.58486 -0.0392,2.42825 -0.0783,4.8564 -0.11749,7.28459 -0.1175,1.76244 -0.23499,3.52481 -0.35248,5.28721 -0.62664,2.31075 -1.25326,4.62141 -1.8799,6.93212 -0.54831,0.82247 -1.0966,1.6449 -1.6449,2.46736 -1.09663,0.58748 -2.19322,1.17493 -3.28982,1.7624 -1.13579,0.31332 -2.27154,0.62663 -3.40731,0.93995 -0.93997,-0.23499 -1.8799,-0.46998 -2.81985,-0.70496 -0.82247,-0.31332 -1.6449,-0.62663 -2.46736,-0.93995 -0.35249,-0.43082 -0.70496,-0.86162 -1.05744,-1.29243 -0.35249,-0.97913 -0.70496,-1.95822 -1.05744,-2.93734 -0.15666,-1.09662 -0.31331,-2.19321 -0.46997,-3.28981 -0.39165,-0.6658 -0.78329,-1.33159 -1.17494,-1.99739 -0.6658,0.15666 -1.33159,0.31331 -1.99739,0.46997 0,1e-5 0,2e-5 0,2e-5 z"
       sodipodi:nodetypes="csccccccccccccccccccccccccccccccsssc" />
    <text
       xml:space="preserve"
       style="font-size:35.9917px;font-family:Calibri;-inkscape-font-specification:Calibri;text-align:center;text-anchor:middle;display:inline;opacity:1;fill:#49b7d0;fill-opacity:1;stroke-width:0.449897;stroke-linecap:round;stroke-linejoin:round;stroke-miterlimit:4.5"
       x="388.84198"
       y="398.3317"
       id="text39"><tspan
         sodipodi:role="line"
         id="tspan39"
         x="388.84198"
         y="398.3317"
         style="font-style:normal;font-variant:normal;font-weight:bold;font-stretch:normal;font-family:Calibri;-inkscape-font-specification:'Calibri Bold';fill:#49b7d0;fill-opacity:1;stroke-width:0.449897">Cleaning   Services</tspan></text>
    <path
       sodipodi:type="star"
       style="opacity:1;fill:#06a3d9;fill-opacity:1;stroke-width:0.2;stroke-linecap:round;stroke-linejoin:round;stroke-miterlimit:4.5"
       id="path39"
       inkscape:flatsided="false"
       sodipodi:sides="4"
       sodipodi:cx="176.13051"
       sodipodi:cy="51.177544"
       sodipodi:r1="12.645704"
       sodipodi:r2="6.3228521"
       sodipodi:arg1="1.5707963"
       sodipodi:arg2="2.3561945"
       inkscape:rounded="0"
       inkscape:randomized="0"
       d="m 176.13051,63.823248 -4.47093,-8.174773 -8.17478,-4.470931 8.17478,-4.470932 4.47093,-8.174773 4.47093,8.174773 8.17477,4.470931 -8.17477,4.470932 z"
       transform="matrix(0.73720584,0,0,0.73720584,263.19191,351.44191)" />
    <path
       id="path13"
       style="display:inline;opacity:1;fill:#0767b3;fill-opacity:1;stroke-width:0.2;stroke-linecap:round;stroke-linejoin:round;stroke-miterlimit:4.5"
       d="m 173.76172,264.91406 c -2.56428,0.005 -5.81448,0.044 -9.98242,0.11328 -16.67177,0.27695 -48.02012,1.05175 -63.75,1.43946 -15.729882,0.3877 -15.840356,0.38843 -16.726566,2.10547 -0.88621,1.71703 -2.548719,5.15044 -4.875,7.31054 -2.32628,2.1601 -5.317564,3.04629 -7.699218,3.71094 -2.381654,0.66465 -4.152724,1.10698 -5.205078,1.60547 -1.052355,0.49849 -1.384959,1.05225 -0.44336,2.32617 0.9416,1.27392 3.157252,3.26752 5.705078,4.81836 2.547826,1.55084 5.427934,2.66013 7.421875,3.43555 1.993941,0.77542 3.10168,1.21756 3.710938,2.54687 0.609257,1.32931 0.720004,3.54563 0.77539,6.42578 0.05539,2.88016 0.05443,6.42506 -0.388671,10.19141 -0.443105,3.76635 -1.329558,7.75344 -3.378907,11.96289 -2.049348,4.20945 -5.260226,8.6398 -7.697265,11.79687 -2.43704,3.15708 -4.098693,5.04095 -5.871094,6.5918 -1.772401,1.55085 -3.656549,2.76866 -6.259766,3.76563 -2.603216,0.99697 -5.926391,1.77185 -8.197265,2.82422 -2.270875,1.05236 -3.489398,2.38193 -3.710938,3.3789 -0.22154,0.99697 0.555019,1.66139 3.158203,2.49219 2.603184,0.8308 7.032257,1.8275 12.515625,3.26758 5.483368,1.44008 12.020411,3.32466 17.669922,5.76172 5.649511,2.43705 10.412798,5.42819 14.068359,7.86523 3.655562,2.43704 6.202478,4.31929 8.417968,5.48242 2.21549,1.16313 4.09925,1.60658 5.98242,1.82813 1.88318,0.22155 3.76527,0.22185 5.64844,-0.33203 1.88317,-0.55389 3.76747,-1.66215 6.09375,-3.82227 2.32628,-2.16012 5.09453,-5.37215 9.35938,-12.24023 4.26485,-6.86808 10.02609,-17.39132 13.68164,-24.75782 3.65555,-7.36649 5.20601,-11.57586 6.36914,-15.61914 1.16313,-4.04328 1.9378,-7.921 1.60547,-11.85351 -0.33234,-3.93251 -1.77257,-7.91925 -2.76954,-10.91016 -0.99697,-2.99091 -1.55002,-4.98546 -0.2207,-5.98242 1.32932,-0.99696 4.54148,-0.99654 6.97852,-0.49805 2.43703,0.49849 4.09939,1.49536 5.8164,2.32617 1.71701,0.83081 3.48832,1.49496 5.64844,2.04883 2.16012,0.55388 4.70903,0.99665 6.86914,1.10742 2.16011,0.11078 3.93183,-0.11103 5.92578,-0.44335 1.99395,-0.33233 4.20903,-0.77547 6.36914,-2.16016 2.16011,-1.3847 4.26431,-3.7105 5.75977,-7.14453 1.49545,-3.43404 2.38242,-7.97504 2.10547,-11.1875 -0.27695,-3.21246 -1.71714,-5.09619 -3.54492,-6.75781 -1.82779,-1.66163 -4.04372,-3.10084 -6.14844,-3.93165 -1.57854,-0.6231 -3.09427,-0.90425 -10.78711,-0.88867 z m -7.26758,2.10547 h 11.21484 l 2.65821,0.66602 4.81836,3.15625 2.16015,3.73828 1.41211,2.44531 0.084,2.20703 -0.83008,3.49024 -1.4961,2.32617 -2.41015,2.74219 -1.74414,1.57812 -6.14844,2.6582 -2.90625,0.25 -5.73242,-0.58203 -6.23242,-1.82812 0.58203,-1.82813 c 0,0 20.02268,2.66029 19.77344,-7.55859 v -2.41016 l -2.57618,-4.23633 -3.57226,-2.16015 h -70.78516 l 9.125,-2.44531 27.59766,-1.29493 z m -43.10547,28.4043 c 0.3545,-0.007 0.69129,-0.004 1.00977,0.01 2.54782,0.11077 3.8774,0.8871 2.60351,1.93946 -1.27389,1.05235 -5.14981,2.38204 -8.75,3.98828 -3.60018,1.60623 -6.92497,3.48818 -9.30664,5.81445 -2.38167,2.32627 -3.8208,5.09486 -5.48242,9.02734 -1.66162,3.9325 -3.544689,9.02949 -4.613281,16.56446 -1.068591,7.53497 -1.322111,17.50921 -1.488281,22.49414 -0.16617,4.98491 -0.245325,4.97976 -3.27539,3.20508 -3.030067,-1.77469 -9.011063,-5.31942 -12.001954,-7.0918 -2.99089,-1.77238 -2.991932,-1.77162 -3.089843,-1.83594 -0.09791,-0.0643 -0.292912,-0.19377 1.091797,-2.63086 1.384707,-2.43707 4.35007,-7.18172 7.328124,-12.04687 2.978056,-4.86517 5.967973,-9.85154 7.574219,-13.5625 1.606248,-3.71097 1.827953,-6.14665 2.769531,-8.91602 0.94158,-2.76935 2.604238,-5.87196 5.484378,-8.58593 2.88012,-2.71399 6.97765,-5.0404 10.91015,-6.48047 3.44095,-1.26007 6.75484,-1.84109 9.23633,-1.89258 z m 12.4961,10.94922 c 0.65749,-0.005 1.03125,0.0273 1.03125,0.0273 l -0.66407,7.31055 -4.65234,13.29297 -10.9668,16.94921 -9.63672,9.96876 0.33203,-19.27344 c 1.45391,-26.46107 19.95412,-28.24359 24.55665,-28.27539 z" />
  </g>
</svg>
